<svg width="25" height="24" viewBox="0 0 25 24" fill="none" xmlns="http://www.w3.org/2000/svg">
<path d="M16.998 9.614C14.514 10.439 10.486 10.439 8.00098 9.614" stroke="currentColor" stroke-width="1.5" stroke-linecap="round" stroke-linejoin="round"/>
<path d="M11.1001 13.9H13.9001" stroke="currentColor" stroke-width="1.5" stroke-linecap="round" stroke-linejoin="round"/>
<path d="M13.833 10.186V10.233C13.833 13.617 13.833 14.97 14.5 17" stroke="currentColor" stroke-width="1.5" stroke-linecap="round" stroke-linejoin="round"/>
<path d="M11.167 10.186V10.233C11.167 13.617 11.167 14.97 10.5 17" stroke="currentColor" stroke-width="1.5" stroke-linecap="round" stroke-linejoin="round"/>
<path d="M18.8639 5.63604C22.3787 9.15076 22.3787 14.8492 18.8639 18.3639C15.3492 21.8787 9.65074 21.8787 6.13604 18.3639C2.62132 14.8492 2.62132 9.15074 6.13604 5.63604C9.65076 2.12132 15.3492 2.12132 18.8639 5.63604" stroke="currentColor" stroke-width="1.5" stroke-linecap="round" stroke-linejoin="round"/>
<path d="M12.8359 6.91412C13.0214 7.09962 13.0214 7.40038 12.8359 7.58588C12.6504 7.77137 12.3496 7.77137 12.1641 7.58588C11.9786 7.40038 11.9786 7.09962 12.1641 6.91412C12.3496 6.72863 12.6504 6.72863 12.8359 6.91412" stroke="currentColor" stroke-width="1.5" stroke-linecap="round" stroke-linejoin="round"/>
</svg>
