<svg width="30" height="30" viewBox="0 0 30 30" fill="none" xmlns="http://www.w3.org/2000/svg">
<path d="M20.375 17C20.8958 17 21.3594 16.7969 21.7656 16.3906C22.1719 15.9844 22.375 15.5156 22.375 14.9844C22.375 14.4531 22.1719 13.9896 21.7656 13.5938C21.3594 13.1979 20.8958 13 20.375 13C19.8542 13 19.3906 13.1979 18.9844 13.5938C18.5781 13.9896 18.375 14.4531 18.375 14.9844C18.375 15.5156 18.5781 15.9844 18.9844 16.3906C19.3906 16.7969 19.8542 17 20.375 17ZM5.625 22.7188V24.375V5.625V22.7188ZM5.625 26.25C5.14583 26.25 4.71354 26.0625 4.32813 25.6875C3.94271 25.3125 3.75 24.875 3.75 24.375V5.625C3.75 5.14583 3.94271 4.71354 4.32813 4.32812C4.71354 3.94271 5.14583 3.75 5.625 3.75H24.375C24.875 3.75 25.3125 3.94271 25.6875 4.32812C26.0625 4.71354 26.25 5.14583 26.25 5.625V9.8125H24.375V5.625H5.625V24.375H24.375V20.2188H26.25V24.375C26.25 24.875 26.0625 25.3125 25.6875 25.6875C25.3125 26.0625 24.875 26.25 24.375 26.25H5.625ZM16.8125 20.8438C16.1042 20.8438 15.5417 20.6354 15.125 20.2188C14.7083 19.8021 14.5 19.25 14.5 18.5625V11.4688C14.5 10.7604 14.7083 10.2031 15.125 9.79688C15.5417 9.39062 16.1042 9.1875 16.8125 9.1875H25.25C25.9583 9.1875 26.5208 9.39062 26.9375 9.79688C27.3542 10.2031 27.5625 10.7604 27.5625 11.4688V18.5625C27.5625 19.25 27.3542 19.8021 26.9375 20.2188C26.5208 20.6354 25.9583 20.8438 25.25 20.8438H16.8125ZM25.6875 18.9688V11.0625H16.375V18.9688H25.6875Z" fill="currentColor"/>
</svg>
