<svg width="20" height="19" viewBox="0 0 20 19" fill="none" xmlns="http://www.w3.org/2000/svg">
<g clip-path="url(#clip0_96_91943)">
<path d="M0 15.7432C0 11.3937 0 7.04478 0 2.6953C0.194271 1.98072 0.70625 1.66561 1.4349 1.71613C1.65313 1.73124 1.87344 1.71874 2.10938 1.71874C2.10938 1.54999 2.10729 1.40155 2.10938 1.25311C2.12083 0.547904 2.6724 -0.00261677 3.3651 -1.25987e-05C4.04844 0.00259157 4.59583 0.549466 4.60885 1.24478C4.61146 1.39842 4.60885 1.55259 4.60885 1.70363H7.89063C7.89063 1.53957 7.88802 1.39009 7.89063 1.24061C7.90417 0.547904 8.45573 0.000508235 9.13906 -1.25987e-05C9.82344 -0.000533432 10.375 0.544779 10.3896 1.23749C10.3927 1.39165 10.3896 1.54634 10.3896 1.70572H13.6714C13.6714 1.55103 13.6698 1.40884 13.6714 1.26665C13.6807 0.556758 14.2229 0.00363323 14.913 -1.25987e-05C15.6141 -0.00365843 16.1625 0.549466 16.1714 1.26978C16.1729 1.41665 16.1714 1.56301 16.1714 1.71874C16.3948 1.71874 16.5911 1.73332 16.7844 1.71613C17.7938 1.62707 18.3724 2.2453 18.2818 3.20572C18.275 3.27967 18.2807 3.3552 18.2807 3.43801C18.4932 3.43801 18.675 3.43228 18.8568 3.43905C19.2453 3.45415 19.5641 3.61561 19.7807 3.93957C19.8766 4.08228 19.9276 4.25467 19.9995 4.41405V17.462C19.7682 18.2614 19.2083 18.4469 18.5635 18.4453C13.4276 18.4328 8.29167 18.4255 3.15573 18.45C2.23021 18.4542 1.63333 17.9057 1.71719 17.0094C1.72604 16.9156 1.71823 16.8208 1.71823 16.7187C1.50573 16.7187 1.32344 16.725 1.14219 16.7177C0.745833 16.7021 0.424479 16.5333 0.206771 16.2015C0.116146 16.063 0.0677083 15.8969 0 15.7432ZM18.2812 4.21978V4.47186C18.2812 8.12395 18.2812 11.776 18.2812 15.4281C18.2812 16.237 17.8021 16.7193 16.999 16.7198C15.0135 16.7198 13.0281 16.7198 11.0427 16.7198C10.9906 16.7198 10.9385 16.7219 10.8865 16.7177C10.6646 16.7 10.5057 16.5328 10.5089 16.3224C10.512 16.1193 10.6667 15.9583 10.8792 15.9406C10.9438 15.9349 11.0094 15.9385 11.0745 15.9385C13.0401 15.9385 15.0062 15.9385 16.9719 15.9385C17.375 15.9385 17.4995 15.8156 17.4995 15.4167C17.4995 12.7474 17.4995 10.0786 17.4995 7.40936V7.20155H0.78125C0.78125 7.27915 0.78125 7.34374 0.78125 7.4078C0.78125 10.0771 0.78125 12.7458 0.78125 15.4151C0.78125 15.8161 0.904688 15.9385 1.30677 15.9385C3.27917 15.9385 5.25156 15.9385 7.22396 15.9385C7.28906 15.9385 7.35469 15.9349 7.41927 15.9422C7.61979 15.9651 7.76823 16.1265 7.77188 16.3213C7.77604 16.5234 7.62448 16.6937 7.41563 16.7167C7.35104 16.7234 7.28542 16.7198 7.22031 16.7198C5.72292 16.7198 4.22604 16.7198 2.72865 16.7198H2.5C2.5 16.8661 2.5 16.9948 2.5 17.1229C2.5 17.5359 2.62135 17.6573 3.0349 17.6573C8.24896 17.6573 13.463 17.6573 18.6771 17.6573C19.1031 17.6573 19.2193 17.5406 19.2193 17.1104C19.2193 12.9963 19.2193 8.88176 19.2193 4.7677C19.2193 4.71561 19.2214 4.66353 19.2182 4.61145C19.2047 4.3854 19.0589 4.23176 18.8365 4.22134C18.6615 4.21301 18.4859 4.21978 18.2823 4.21978H18.2812ZM16.1719 2.50103C16.1719 2.66405 16.1734 2.80624 16.1719 2.9479C16.163 3.66822 15.6146 4.22186 14.9141 4.21822C14.224 4.21457 13.6807 3.66092 13.6729 2.95155C13.6714 2.80467 13.6729 2.65728 13.6729 2.51613H10.3911C10.3911 2.68124 10.3938 2.83124 10.3911 2.98072C10.3766 3.6729 9.82396 4.21926 9.14062 4.21874C8.45781 4.21822 7.90573 3.6703 7.89271 2.97811C7.88958 2.82395 7.89271 2.66978 7.89271 2.51405H4.61094C4.61094 2.66353 4.61198 2.79947 4.61094 2.9354C4.60417 3.66092 4.0651 4.21665 3.36667 4.21926C2.65938 4.22186 2.11667 3.66301 2.11146 2.92707C2.11042 2.78697 2.11146 2.64738 2.11146 2.50103C1.81354 2.50103 1.54688 2.50051 1.28021 2.50103C0.919271 2.50207 0.783854 2.63592 0.783333 2.99426C0.782813 4.06822 0.783333 5.1427 0.783333 6.21665V6.39634H17.4974C17.4974 5.20884 17.501 4.03176 17.4938 2.8552C17.4927 2.65467 17.3245 2.50936 17.1172 2.50363C16.812 2.49582 16.5068 2.50103 16.1719 2.50103ZM3.82813 2.10884C3.82813 1.8427 3.82969 1.57603 3.82813 1.30988C3.82552 0.992696 3.63229 0.779154 3.35521 0.782279C3.08438 0.784883 2.89375 0.994258 2.89219 1.30051C2.88958 1.83957 2.88958 2.37863 2.89219 2.9177C2.89375 3.22342 3.08438 3.43332 3.35521 3.43592C3.63229 3.43905 3.82552 3.22551 3.82813 2.9078C3.83021 2.64165 3.82813 2.37499 3.82813 2.10884ZM8.6724 2.10415C8.6724 2.38332 8.66875 2.66301 8.67344 2.94217C8.67813 3.23072 8.87656 3.43645 9.14115 3.43645C9.40573 3.43645 9.60573 3.23124 9.60833 2.94217C9.61302 2.39009 9.6125 1.83801 9.60833 1.28592C9.60625 0.986446 9.4026 0.777071 9.13125 0.782279C8.86771 0.788008 8.67708 0.993737 8.67292 1.28592C8.66927 1.55884 8.67188 1.83124 8.6724 2.10415ZM15.3906 2.11145C15.3906 1.83228 15.3948 1.55259 15.3896 1.27342C15.3844 0.985404 15.1844 0.781237 14.9198 0.782279C14.6557 0.783842 14.4573 0.98905 14.4552 1.27863C14.451 1.83072 14.4516 2.3828 14.4552 2.93488C14.4573 3.22603 14.6516 3.43176 14.9156 3.43592C15.1865 3.44009 15.3865 3.23072 15.3906 2.92915C15.3943 2.65624 15.3911 2.38436 15.3906 2.11145Z" fill="currentColor"/>
<path d="M9.156 15.9401C9.36382 15.949 9.53309 16.1281 9.52944 16.3349C9.52579 16.55 9.33882 16.7271 9.12475 16.7182C8.91017 16.7094 8.73725 16.5177 8.75184 16.3036C8.7659 16.0963 8.94923 15.9307 9.156 15.9396V15.9401Z" fill="currentColor"/>
</g>
<defs>
<clipPath id="clip0_96_91943">
<rect width="20" height="18.4505" fill="currentColor"/>
</clipPath>
</defs>
</svg>
