<svg width="38" height="38" viewBox="0 0 38 38" fill="none" xmlns="http://www.w3.org/2000/svg">
<path d="M5 14.3333H28.3333" stroke="currentColor" stroke-width="1.8" stroke-linecap="round" stroke-linejoin="round"/>
<path fill-rule="evenodd" clip-rule="evenodd" d="M21.4671 28.3333H8.11111C6.39222 28.3333 5 26.9411 5 25.2222V9.66667C5 7.94778 6.39222 6.55556 8.11111 6.55556H25.2222C26.9411 6.55556 28.3333 7.94778 28.3333 9.66667V21.4671C28.3333 21.8793 28.17 22.276 27.8776 22.5669L22.5669 27.8776C22.2744 28.17 21.8793 28.3333 21.4671 28.3333Z" stroke="currentColor" stroke-width="1.8" stroke-linecap="round" stroke-linejoin="round"/>
<path d="M20.5555 28.3333V22.1111C20.5555 21.2524 21.2524 20.5556 22.1111 20.5556H28.3333" stroke="currentColor" stroke-width="1.8" stroke-linecap="round" stroke-linejoin="round"/>
<path d="M22.1112 5V8.11111" stroke="currentColor" stroke-width="1.8" stroke-linecap="round" stroke-linejoin="round"/>
<path d="M11.2222 5V8.11111" stroke="currentColor" stroke-width="1.8" stroke-linecap="round" stroke-linejoin="round"/>
<path d="M33.0001 14.3333V29.8889C33.0001 31.6078 31.6078 33 29.8889 33H12.7778" stroke="currentColor" stroke-width="1.8" stroke-linecap="round" stroke-linejoin="round"/>
</svg>
