<svg width="26" height="21" viewBox="0 0 26 21" fill="none" xmlns="http://www.w3.org/2000/svg">
<path d="M23.0796 4.27993H19.1093L16.8013 1.96624C16.7985 1.96346 16.7961 1.96159 16.7938 1.95877L16.7896 1.95503C16.4427 1.61194 15.9665 1.40002 15.4401 1.40002H10.6401C10.0823 1.40002 9.585 1.64097 9.23386 2.02067L9.23199 2.01506L6.97172 4.27998H2.91995C1.85967 4.27998 1 5.1397 1 6.19993V17.7197C1 18.78 1.85967 19.6396 2.91995 19.6396H23.0796C24.1403 19.6396 25 18.78 25 17.7197V6.19993C25 5.13965 24.1403 4.27993 23.0796 4.27993ZM24.04 17.7197C24.04 18.2484 23.6087 18.6797 23.0795 18.6797H2.91995C2.39077 18.6797 1.95995 18.2485 1.95995 17.7197V6.19993C1.95995 5.67027 2.39072 5.23993 2.91995 5.23993H6.97172H7.36967L7.65139 4.95778L8.81339 3.79344L8.83686 3.86377L9.93887 2.67221C10.1254 2.47065 10.3743 2.36002 10.6401 2.36002H15.44C15.6936 2.36002 15.9336 2.45848 16.1215 2.64409L18.4296 4.95783L18.7109 5.23998H19.1093H23.0795C23.6087 5.23998 24.04 5.67027 24.04 6.19998V17.7197Z" fill="#0676B5" stroke="#0676B5"/>
<mask id="path-2-inside-1_1204_98353" fill="white">
<path d="M13.5 6.00012C10.4625 6.00012 8 8.46173 8 11.4993C8 14.5369 10.4625 17.0001 13.5 17.0001C16.5375 17.0001 19 14.5369 19 11.4993C19 8.46177 16.5376 6.00012 13.5 6.00012ZM13.5 16.154C10.9339 16.154 8.84617 14.0659 8.84617 11.4993C8.84617 8.93357 10.9339 6.84629 13.5 6.84629C16.0661 6.84629 18.1538 8.93357 18.1538 11.4993C18.1539 14.0659 16.0661 16.154 13.5 16.154Z"/>
</mask>
<path d="M13.5 6.00012C10.4625 6.00012 8 8.46173 8 11.4993C8 14.5369 10.4625 17.0001 13.5 17.0001C16.5375 17.0001 19 14.5369 19 11.4993C19 8.46177 16.5376 6.00012 13.5 6.00012ZM13.5 16.154C10.9339 16.154 8.84617 14.0659 8.84617 11.4993C8.84617 8.93357 10.9339 6.84629 13.5 6.84629C16.0661 6.84629 18.1538 8.93357 18.1538 11.4993C18.1539 14.0659 16.0661 16.154 13.5 16.154Z" fill="#0676B5"/>
<path d="M18.1538 11.4993H16.1538V11.4994L18.1538 11.4993ZM13.5 4.00012C9.35827 4.00012 6 7.35677 6 11.4993H10C10 9.56669 11.5666 8.00012 13.5 8.00012V4.00012ZM6 11.4993C6 15.6411 9.35751 19.0001 13.5 19.0001V15.0001C11.5674 15.0001 10 13.4327 10 11.4993H6ZM13.5 19.0001C17.6425 19.0001 21 15.6411 21 11.4993H17C17 13.4327 15.4326 15.0001 13.5 15.0001V19.0001ZM21 11.4993C21 7.35683 17.6418 4.00012 13.5 4.00012V8.00012C15.4334 8.00012 17 9.56671 17 11.4993H21ZM13.5 14.154C12.0388 14.154 10.8462 12.9616 10.8462 11.4993H6.84617C6.84617 15.1701 9.82897 18.154 13.5 18.154V14.154ZM10.8462 11.4993C10.8462 10.0385 12.0381 8.84629 13.5 8.84629V4.84629C9.82964 4.84629 6.84617 7.82866 6.84617 11.4993H10.8462ZM13.5 8.84629C14.9619 8.84629 16.1538 10.0385 16.1538 11.4993H20.1538C20.1538 7.82866 17.1704 4.84629 13.5 4.84629V8.84629ZM16.1538 11.4994C16.1539 12.9616 14.9613 14.154 13.5 14.154V18.154C17.171 18.154 20.1539 15.1701 20.1538 11.4993L16.1538 11.4994Z" fill="#0676B5" mask="url(#path-2-inside-1_1204_98353)"/>
<mask id="path-4-inside-2_1204_98353" fill="white">
<path d="M13.5 8.00012C11.5666 8.00012 10 9.56634 10 11.4994C10 13.4324 11.5666 15.0001 13.5 15.0001C15.4334 15.0001 17 13.4324 17 11.4994C17 9.56634 15.4334 8.00012 13.5 8.00012ZM13.5 14.2223C11.9991 14.2223 10.7778 13.0003 10.7778 11.4994C10.7778 9.9985 11.9991 8.77791 13.5 8.77791C15.0009 8.77791 16.2222 9.9985 16.2222 11.4994C16.2222 13.0003 15.0009 14.2223 13.5 14.2223Z"/>
</mask>
<path d="M13.5 8.00012C11.5666 8.00012 10 9.56634 10 11.4994C10 13.4324 11.5666 15.0001 13.5 15.0001C15.4334 15.0001 17 13.4324 17 11.4994C17 9.56634 15.4334 8.00012 13.5 8.00012ZM13.5 14.2223C11.9991 14.2223 10.7778 13.0003 10.7778 11.4994C10.7778 9.9985 11.9991 8.77791 13.5 8.77791C15.0009 8.77791 16.2222 9.9985 16.2222 11.4994C16.2222 13.0003 15.0009 14.2223 13.5 14.2223Z" fill="#0676B5"/>
<path d="M13.5 6.00012C10.4624 6.00012 8 8.46137 8 11.4994H12C12 10.6713 12.6707 10.0001 13.5 10.0001V6.00012ZM8 11.4994C8 14.5363 10.4613 17.0001 13.5 17.0001V13.0001C12.6718 13.0001 12 12.3286 12 11.4994H8ZM13.5 17.0001C16.5387 17.0001 19 14.5363 19 11.4994H15C15 12.3286 14.3282 13.0001 13.5 13.0001V17.0001ZM19 11.4994C19 8.46137 16.5376 6.00012 13.5 6.00012V10.0001C14.3293 10.0001 15 10.6713 15 11.4994H19ZM13.5 12.2223C13.1044 12.2223 12.7778 11.8964 12.7778 11.4994H8.77779C8.77779 14.1041 10.8938 16.2223 13.5 16.2223V12.2223ZM12.7778 11.4994C12.7778 11.1038 13.103 10.7779 13.5 10.7779V6.77791C10.8952 6.77791 8.77779 8.89322 8.77779 11.4994H12.7778ZM13.5 10.7779C13.897 10.7779 14.2222 11.1038 14.2222 11.4994H18.2222C18.2222 8.89322 16.1048 6.77791 13.5 6.77791V10.7779ZM14.2222 11.4994C14.2222 11.8964 13.8956 12.2223 13.5 12.2223V16.2223C16.1062 16.2223 18.2222 14.1041 18.2222 11.4994H14.2222Z" fill="#0676B5" mask="url(#path-4-inside-2_1204_98353)"/>
</svg>
