<svg width="38" height="38" viewBox="0 0 38 38" fill="none" xmlns="http://www.w3.org/2000/svg">
<path d="M31.117 12.4418H24.8921C24.0327 12.4418 23.3359 11.7451 23.3359 10.8856V4.66083" stroke="#0074B2" stroke-width="2.1" stroke-linecap="round" stroke-linejoin="round"/>
<path d="M9.32959 12.4418V7.77324C9.32959 6.0543 10.7231 4.66083 12.442 4.66083H23.6031C24.4285 4.66083 25.22 4.98903 25.8036 5.57276L30.2045 9.97371C30.7882 10.5573 31.1164 11.3488 31.1164 12.1742V29.5601C31.1164 31.279 29.723 32.6725 28.004 32.6725H12.442C10.7231 32.6725 9.32959 31.279 9.32959 29.5601V28.0039" stroke="#0074B2" stroke-width="2.1" stroke-linecap="round" stroke-linejoin="round"/>
<path d="M12.2568 17.5991V20.6399L14.6472 22.0966" stroke="#0074B2" stroke-width="2.1" stroke-linecap="round" stroke-linejoin="round"/>
<rect x="4.66113" y="12.4418" width="15.562" height="15.562" rx="3.5" stroke="#0074B2" stroke-width="2.1" stroke-linecap="round" stroke-linejoin="round"/>
</svg>
