<svg width="30" height="31" viewBox="0 0 30 31" fill="none" xmlns="http://www.w3.org/2000/svg">
<path fill-rule="evenodd" clip-rule="evenodd" d="M12.5987 1.27066L11.5488 2.56926C11.299 2.87851 10.9017 3.02928 10.5099 2.96325L8.96263 2.70132C8.08772 2.55275 7.18969 2.76405 6.47106 3.2857C5.75352 3.80734 5.27591 4.59639 5.14605 5.4746L4.91713 7.02633C4.8588 7.41921 4.59358 7.75046 4.2216 7.89353L2.66218 8.49003C1.73115 8.84659 1.01141 9.60485 0.703271 10.5535C0.395127 11.501 0.531588 12.5388 1.07524 13.3741L1.98647 14.7739C2.20327 15.1074 2.22308 15.5311 2.0393 15.8833L1.31185 17.2732C0.901356 18.0601 0.823219 18.979 1.09835 19.8242C1.37238 20.6683 1.97545 21.366 2.77002 21.7611L4.17539 22.4577C4.53085 22.6349 4.76416 22.9904 4.78507 23.3877L4.87092 25.055C4.92264 26.0509 5.42118 26.9698 6.22785 27.5553C7.03453 28.1419 8.0624 28.3323 9.02535 28.0736L10.6376 27.6401C11.0217 27.5366 11.4311 27.6478 11.7095 27.9328L12.8067 29.0531C13.4285 29.687 14.2781 30.0447 15.1662 30.0447C16.0543 30.0447 16.9039 29.687 17.5257 29.0531L18.6229 27.9328C18.9014 27.6478 19.3108 27.5366 19.6948 27.6401L21.3071 28.0736C22.27 28.3323 23.2979 28.1419 24.1046 27.5553C24.9113 26.9698 25.4098 26.0509 25.4615 25.055L25.5474 23.3877C25.5683 22.9904 25.8016 22.6349 26.157 22.4577L27.5624 21.7611C28.357 21.366 28.9601 20.6683 29.2341 19.8242C29.5092 18.979 29.4311 18.0601 29.0206 17.2732L28.2931 15.8833C28.1093 15.5311 28.1292 15.1074 28.346 14.7739L29.2572 13.3741C29.8008 12.5388 29.9373 11.501 29.6292 10.5535C29.321 9.60485 28.6013 8.84659 27.6702 8.49003L26.1108 7.89353C25.7389 7.75046 25.4736 7.41921 25.4153 7.02633L25.1864 5.4746C25.0565 4.59639 24.5789 3.80734 23.8614 3.2857C23.1427 2.76405 22.2447 2.55275 21.3698 2.70132L19.8225 2.96325C19.4307 3.02928 19.0334 2.87851 18.7836 2.56926L17.7337 1.27066C17.1064 0.495903 16.1633 0.0446777 15.1662 0.0446777C14.1691 0.0446777 13.226 0.495903 12.5987 1.27066ZM14.31 2.65511C14.5191 2.39648 14.8339 2.2457 15.1662 2.2457C15.4986 2.2457 15.8133 2.39648 16.0224 2.65511L17.0712 3.9537C17.8218 4.88144 19.0136 5.33264 20.1901 5.13344L21.7363 4.87151C22.0279 4.82199 22.3273 4.89243 22.5672 5.06631C22.8071 5.24019 22.9656 5.50324 23.0085 5.79597L23.2385 7.34767C23.4124 8.52742 24.2091 9.52229 25.3239 9.94819L26.8834 10.5458C27.1937 10.6646 27.4336 10.9177 27.536 11.2336C27.6383 11.5494 27.5932 11.895 27.4116 12.1734L26.5015 13.5733C25.8511 14.5737 25.7906 15.8469 26.343 16.9034L27.0694 18.2934C27.2069 18.5553 27.2322 18.8624 27.1409 19.1441C27.0496 19.4247 26.8493 19.658 26.584 19.789L25.1787 20.4867C24.1101 21.0172 23.4113 22.0825 23.3496 23.2743L23.2638 24.9416C23.2462 25.2728 23.08 25.5799 22.8115 25.7747C22.5419 25.9706 22.1996 26.0344 21.8782 25.9474L20.266 25.5139C19.1138 25.2046 17.8845 25.5403 17.0503 26.3921L15.9531 27.5135C15.7451 27.7248 15.4623 27.8437 15.1662 27.8437C14.8702 27.8437 14.5873 27.7248 14.3793 27.5135L13.2821 26.3921C12.4479 25.5403 11.2187 25.2046 10.0664 25.5139L8.45418 25.9474C8.13283 26.0344 7.79057 25.9706 7.52094 25.7747C7.25242 25.5799 7.08624 25.2728 7.06864 24.9416L6.98279 23.2743C6.92116 22.0825 6.22233 21.0172 5.15374 20.4867L3.74839 19.789C3.48317 19.658 3.28288 19.4247 3.19153 19.1441C3.10019 18.8624 3.1255 18.5553 3.26307 18.2934L3.98939 16.9034C4.54185 15.8469 4.48133 14.5737 3.83092 13.5733L2.9208 12.1734C2.73922 11.895 2.69409 11.5494 2.79644 11.2336C2.89879 10.9177 3.1387 10.6646 3.44905 10.5458L5.00848 9.94819C6.1233 9.52229 6.92006 8.52742 7.09394 7.34767L7.32395 5.79597C7.36687 5.50324 7.52534 5.24019 7.76526 5.06631C8.00517 4.89243 8.30451 4.82199 8.59615 4.87151L10.1424 5.13344C11.3188 5.33264 12.5107 4.88144 13.2612 3.9537L14.31 2.65511ZM18.8595 17.4889C17.6644 17.2732 16.5187 18.0678 16.3019 19.263C16.0862 20.4581 16.8808 21.6048 18.076 21.8205C19.2711 22.0373 20.4179 21.2416 20.6336 20.0465C20.8504 18.8513 20.0547 17.7057 18.8595 17.4889ZM18.7902 10.0726L9.9861 18.8767C9.5569 19.3059 9.5569 20.0036 9.9861 20.4328C10.4153 20.862 11.113 20.862 11.5422 20.4328L20.3463 11.6287C20.7755 11.1995 20.7755 10.5018 20.3463 10.0726C19.9171 9.64335 19.2194 9.64335 18.7902 10.0726ZM12.2565 8.68482C11.0613 8.46912 9.91566 9.26369 9.69886 10.4588C9.48316 11.654 10.2777 12.8007 11.4729 13.0164C12.668 13.2332 13.8148 12.4375 14.0305 11.2424C14.2473 10.0472 13.4516 8.90162 12.2565 8.68482Z" fill="#0074B2"/>
</svg>
