<svg width="38" height="38" viewBox="0 0 38 38" fill="none" xmlns="http://www.w3.org/2000/svg">
<path fill-rule="evenodd" clip-rule="evenodd" d="M21.7777 33H9.33328C7.61439 33 6.22217 31.6078 6.22217 29.8889V14.3333C6.22217 12.6145 7.61439 11.2222 9.33328 11.2222H21.7777C23.4966 11.2222 24.8888 12.6145 24.8888 14.3333V29.8889C24.8888 31.6078 23.4966 33 21.7777 33Z" stroke="currentColor" stroke-width="1.8" stroke-linecap="round" stroke-linejoin="round"/>
<path d="M24.8888 26.7778H27.9999C29.7188 26.7778 31.111 25.3856 31.111 23.6667V8.11111C31.111 6.39222 29.7188 5 27.9999 5H15.5554C13.8366 5 12.4443 6.39222 12.4443 8.11111V11.2222" stroke="currentColor" stroke-width="1.8" stroke-linecap="round" stroke-linejoin="round"/>
<path d="M12.4443 19H18.6666" stroke="currentColor" stroke-width="1.8" stroke-linecap="round" stroke-linejoin="round"/>
<path d="M12.4443 25.2222H18.6666" stroke="currentColor" stroke-width="1.8" stroke-linecap="round" stroke-linejoin="round"/>
</svg>
