<svg width="30" height="36" viewBox="0 0 30 36" fill="none" xmlns="http://www.w3.org/2000/svg">
<path d="M20.6385 14.2567L13.8327 21.0625L9.75 16.9797" stroke="#0074B2" stroke-width="1.5" stroke-linecap="round" stroke-linejoin="round"/>
<path d="M16.9075 6.625L19.5325 4L16.9075 1.375" stroke="#0074B2" stroke-width="1.5" stroke-linecap="round" stroke-linejoin="round"/>
<path d="M13.0925 29.375L10.4675 32L13.0925 34.625" stroke="#0074B2" stroke-width="1.5" stroke-linecap="round" stroke-linejoin="round"/>
<path d="M24.9296 8.14925C27.4408 10.6797 29.0001 14.1535 29.0001 18C29.0001 25.7315 22.7316 32 15.0001 32C13.6246 32 12.2998 31.7935 11.0433 31.4242" stroke="#0074B2" stroke-width="1.5" stroke-linecap="round" stroke-linejoin="round"/>
<path d="M4.9445 27.7335C2.505 25.2135 1 21.7835 1 18C1 10.2685 7.2685 4 15 4C16.3755 4 17.7002 4.2065 18.9567 4.57575" stroke="#0074B2" stroke-width="1.5" stroke-linecap="round" stroke-linejoin="round"/>
</svg>
