<svg width="24" height="19" viewBox="0 0 24 19" fill="none" xmlns="http://www.w3.org/2000/svg">
<path d="M0 15.7432C0 11.3938 0 7.04481 0 2.69533C0.226649 1.98075 0.823958 1.66564 1.67405 1.71616C1.92865 1.73127 2.18568 1.71877 2.46094 1.71877C2.46094 1.55002 2.45851 1.40158 2.46094 1.25314C2.47431 0.547935 3.1178 -0.00258625 3.92596 1.79189e-05C4.72318 0.00262209 5.36181 0.549497 5.377 1.24481C5.38003 1.39846 5.377 1.55262 5.377 1.70366H9.20573C9.20573 1.5396 9.20269 1.39012 9.20573 1.24064C9.22153 0.547935 9.86502 0.000538752 10.6622 1.79189e-05C11.4607 -0.000502914 12.1042 0.54481 12.1212 1.23752C12.1248 1.39168 12.1212 1.54637 12.1212 1.70575H15.9499C15.9499 1.55106 15.9481 1.40887 15.9499 1.26668C15.9609 0.556789 16.5934 0.00366375 17.3985 1.79189e-05C18.2164 -0.00362791 18.8562 0.549497 18.8666 1.26981C18.8684 1.41668 18.8666 1.56304 18.8666 1.71877C19.1273 1.71877 19.3563 1.73335 19.5818 1.71616C20.7594 1.6271 21.4345 2.24533 21.3287 3.20575C21.3208 3.27971 21.3275 3.35523 21.3275 3.43804C21.5754 3.43804 21.7875 3.43231 21.9996 3.43908C22.4529 3.45418 22.8247 3.61564 23.0775 3.9396C23.1893 4.08231 23.2489 4.25471 23.3327 4.41408V17.462C23.0629 18.2615 22.4097 18.4469 21.6575 18.4453C15.6655 18.4328 9.67361 18.4255 3.68168 18.45C2.60191 18.4542 1.90556 17.9057 2.00339 17.0094C2.01372 16.9156 2.0046 16.8209 2.0046 16.7188C1.75668 16.7188 1.54401 16.725 1.33255 16.7177C0.870139 16.7021 0.495226 16.5334 0.241233 16.2016C0.135503 16.063 0.0789931 15.8969 0 15.7432ZM21.3281 4.21981V4.47189C21.3281 8.12398 21.3281 11.7761 21.3281 15.4281C21.3281 16.237 20.7691 16.7193 19.8321 16.7198C17.5158 16.7198 15.1995 16.7198 12.8832 16.7198C12.8224 16.7198 12.7616 16.7219 12.7009 16.7177C12.442 16.7 12.2567 16.5328 12.2603 16.3224C12.264 16.1193 12.4444 15.9584 12.6924 15.9406C12.7677 15.9349 12.8443 15.9386 12.9202 15.9386C15.2135 15.9386 17.5073 15.9386 19.8005 15.9386C20.2708 15.9386 20.4161 15.8156 20.4161 15.4167C20.4161 12.7474 20.4161 10.0787 20.4161 7.40939V7.20158H0.911458C0.911458 7.27919 0.911458 7.34377 0.911458 7.40783C0.911458 10.0771 0.911458 12.7459 0.911458 15.4151C0.911458 15.8162 1.05547 15.9386 1.52457 15.9386C3.82569 15.9386 6.12682 15.9386 8.42795 15.9386C8.50391 15.9386 8.58047 15.9349 8.65582 15.9422C8.88976 15.9651 9.06293 16.1266 9.06719 16.3214C9.07205 16.5235 8.89523 16.6938 8.65156 16.7167C8.57622 16.7235 8.49965 16.7198 8.4237 16.7198C6.67674 16.7198 4.93038 16.7198 3.18342 16.7198H2.91667C2.91667 16.8662 2.91667 16.9948 2.91667 17.1229C2.91667 17.536 3.05825 17.6573 3.54071 17.6573C9.62379 17.6573 15.7069 17.6573 21.7899 17.6573C22.287 17.6573 22.4225 17.5406 22.4225 17.1104C22.4225 12.9964 22.4225 8.88179 22.4225 4.76773C22.4225 4.71564 22.4249 4.66356 22.4213 4.61148C22.4055 4.38543 22.2353 4.23179 21.9759 4.22137C21.7717 4.21304 21.5669 4.21981 21.3293 4.21981H21.3281ZM18.8672 2.50106C18.8672 2.66408 18.869 2.80627 18.8672 2.94793C18.8569 3.66825 18.217 4.22189 17.3997 4.21825C16.5946 4.2146 15.9608 3.66096 15.9517 2.95158C15.9499 2.80471 15.9517 2.65731 15.9517 2.51616H12.123C12.123 2.68127 12.126 2.83127 12.123 2.98075C12.106 3.67294 11.4613 4.21929 10.6641 4.21877C9.86745 4.21825 9.22335 3.67033 9.20816 2.97814C9.20451 2.82398 9.20816 2.66981 9.20816 2.51408H5.37943C5.37943 2.66356 5.38064 2.7995 5.37943 2.93543C5.37153 3.66096 4.74262 4.21669 3.92778 4.21929C3.1026 4.22189 2.46944 3.66304 2.46337 2.9271C2.46215 2.787 2.46337 2.64741 2.46337 2.50106C2.1158 2.50106 1.80469 2.50054 1.49358 2.50106C1.07248 2.5021 0.914496 2.63596 0.913889 2.99429C0.913281 4.06825 0.913889 5.14273 0.913889 6.21669V6.39637H20.4136C20.4136 5.20887 20.4179 4.03179 20.4094 2.85523C20.4082 2.65471 20.2119 2.50939 19.9701 2.50366C19.614 2.49585 19.2579 2.50106 18.8672 2.50106ZM4.46615 2.10887C4.46615 1.84273 4.46797 1.57606 4.46615 1.30991C4.46311 0.992726 4.23767 0.779185 3.91441 0.78231C3.59844 0.784914 3.37604 0.994289 3.37422 1.30054C3.37118 1.8396 3.37118 2.37866 3.37422 2.91773C3.37604 3.22346 3.59844 3.43335 3.91441 3.43596C4.23767 3.43908 4.46311 3.22554 4.46615 2.90783C4.46858 2.64169 4.46615 2.37502 4.46615 2.10887ZM10.1178 2.10418C10.1178 2.38335 10.1135 2.66304 10.119 2.94221C10.1245 3.23075 10.356 3.43648 10.6647 3.43648C10.9734 3.43648 11.2067 3.23127 11.2097 2.94221C11.2152 2.39012 11.2146 1.83804 11.2097 1.28596C11.2073 0.986476 10.9697 0.777101 10.6531 0.78231C10.3457 0.788039 10.1233 0.993768 10.1184 1.28596C10.1142 1.55887 10.1172 1.83127 10.1178 2.10418ZM17.9557 2.11148C17.9557 1.83231 17.9606 1.55262 17.9545 1.27346C17.9484 0.985435 17.7151 0.781268 17.4064 0.78231C17.0984 0.783872 16.8668 0.98908 16.8644 1.27866C16.8595 1.83075 16.8602 2.38283 16.8644 2.93491C16.8668 3.22606 17.0935 3.43179 17.4016 3.43596C17.7175 3.44012 17.9509 3.23075 17.9557 2.92918C17.96 2.65627 17.9563 2.38439 17.9557 2.11148Z" fill="currentColor"/>
<path d="M10.6815 15.9401C10.924 15.949 11.1214 16.1281 11.1172 16.3349C11.1129 16.55 10.8948 16.7271 10.6451 16.7182C10.3947 16.7094 10.193 16.5177 10.21 16.3036C10.2264 16.0963 10.4403 15.9307 10.6815 15.9396V15.9401Z" fill="currentColor"/>
<path d="M4.23269 13V10.0909H4.67161V11.3551H6.12189V10.0909H6.56223V13H6.12189V11.7315H4.67161V13H4.23269ZM8.08638 13.044C7.88184 13.044 7.70333 12.9972 7.55087 12.9034C7.39841 12.8097 7.28004 12.6785 7.19576 12.5099C7.11148 12.3414 7.06934 12.1444 7.06934 11.919C7.06934 11.6927 7.11148 11.4948 7.19576 11.3253C7.28004 11.1558 7.39841 11.0241 7.55087 10.9304C7.70333 10.8366 7.88184 10.7898 8.08638 10.7898C8.29093 10.7898 8.46943 10.8366 8.62189 10.9304C8.77435 11.0241 8.89273 11.1558 8.97701 11.3253C9.06129 11.4948 9.10343 11.6927 9.10343 11.919C9.10343 12.1444 9.06129 12.3414 8.97701 12.5099C8.89273 12.6785 8.77435 12.8097 8.62189 12.9034C8.46943 12.9972 8.29093 13.044 8.08638 13.044ZM8.0878 12.6875C8.22038 12.6875 8.33023 12.6525 8.41735 12.5824C8.50447 12.5123 8.56886 12.419 8.61053 12.3026C8.65314 12.1861 8.67445 12.0578 8.67445 11.9176C8.67445 11.7784 8.65314 11.6506 8.61053 11.5341C8.56886 11.4167 8.50447 11.3224 8.41735 11.2514C8.33023 11.1804 8.22038 11.1449 8.0878 11.1449C7.95428 11.1449 7.84348 11.1804 7.75542 11.2514C7.66829 11.3224 7.60343 11.4167 7.56081 11.5341C7.51915 11.6506 7.49831 11.7784 7.49831 11.9176C7.49831 12.0578 7.51915 12.1861 7.56081 12.3026C7.60343 12.419 7.66829 12.5123 7.75542 12.5824C7.84348 12.6525 7.95428 12.6875 8.0878 12.6875ZM10.0022 10.0909V13H9.5775V10.0909H10.0022ZM10.5736 13V10.8182H10.9983V13H10.5736ZM10.7881 10.4815C10.7142 10.4815 10.6508 10.4569 10.5977 10.4077C10.5457 10.3575 10.5196 10.2978 10.5196 10.2287C10.5196 10.1586 10.5457 10.099 10.5977 10.0497C10.6508 9.99953 10.7142 9.97443 10.7881 9.97443C10.8619 9.97443 10.9249 9.99953 10.977 10.0497C11.03 10.099 11.0566 10.1586 11.0566 10.2287C11.0566 10.2978 11.03 10.3575 10.977 10.4077C10.9249 10.4569 10.8619 10.4815 10.7881 10.4815ZM12.3865 13.0426C12.2103 13.0426 12.0531 12.9976 11.9149 12.9077C11.7776 12.8168 11.6696 12.6875 11.591 12.5199C11.5133 12.3513 11.4745 12.1491 11.4745 11.9134C11.4745 11.6776 11.5138 11.4759 11.5924 11.3082C11.672 11.1406 11.7809 11.0123 11.9191 10.9233C12.0574 10.8343 12.2141 10.7898 12.3893 10.7898C12.5247 10.7898 12.6336 10.8125 12.716 10.858C12.7993 10.9025 12.8637 10.9545 12.9092 11.0142C12.9556 11.0739 12.9916 11.1264 13.0171 11.1719H13.0427V10.0909H13.4674V13H13.0526V12.6605H13.0171C12.9916 12.7069 12.9546 12.7599 12.9063 12.8196C12.859 12.8793 12.7936 12.9313 12.7103 12.9759C12.627 13.0204 12.519 13.0426 12.3865 13.0426ZM12.4802 12.6804C12.6024 12.6804 12.7056 12.6482 12.7899 12.5838C12.8751 12.5185 12.9395 12.428 12.983 12.3125C13.0276 12.197 13.0498 12.0625 13.0498 11.9091C13.0498 11.7576 13.028 11.625 12.9845 11.5114C12.9409 11.3977 12.877 11.3092 12.7927 11.2457C12.7084 11.1823 12.6043 11.1506 12.4802 11.1506C12.3524 11.1506 12.2458 11.1837 12.1606 11.25C12.0754 11.3163 12.011 11.4067 11.9674 11.5213C11.9248 11.6359 11.9035 11.7652 11.9035 11.9091C11.9035 12.0549 11.9253 12.1861 11.9688 12.3026C12.0124 12.419 12.0768 12.5114 12.162 12.5795C12.2482 12.6468 12.3543 12.6804 12.4802 12.6804ZM14.7085 13.0483C14.5703 13.0483 14.4453 13.0227 14.3335 12.9716C14.2218 12.9195 14.1333 12.8442 14.0679 12.7457C14.0035 12.6473 13.9713 12.5265 13.9713 12.3835C13.9713 12.2604 13.995 12.1591 14.0423 12.0795C14.0897 12 14.1536 11.937 14.2341 11.8906C14.3146 11.8442 14.4046 11.8092 14.504 11.7855C14.6034 11.7618 14.7048 11.7438 14.808 11.7315C14.9387 11.7164 15.0447 11.7041 15.1262 11.6946C15.2076 11.6842 15.2668 11.6676 15.3037 11.6449C15.3406 11.6222 15.3591 11.5852 15.3591 11.5341V11.5241C15.3591 11.4001 15.3241 11.304 15.254 11.2358C15.1849 11.1676 15.0816 11.1335 14.9443 11.1335C14.8013 11.1335 14.6887 11.1652 14.6063 11.2287C14.5248 11.2912 14.4685 11.3608 14.4372 11.4375L14.0381 11.3466C14.0854 11.214 14.1546 11.107 14.2455 11.0256C14.3373 10.9432 14.4429 10.8835 14.5622 10.8466C14.6816 10.8087 14.807 10.7898 14.9387 10.7898C15.0258 10.7898 15.1181 10.8002 15.2156 10.821C15.3141 10.8409 15.406 10.8778 15.4912 10.9318C15.5774 10.9858 15.6479 11.063 15.7029 11.1634C15.7578 11.2628 15.7852 11.392 15.7852 11.5511V13H15.3705V12.7017H15.3534C15.326 12.7566 15.2848 12.8106 15.2298 12.8636C15.1749 12.9167 15.1044 12.9607 15.0182 12.9957C14.932 13.0308 14.8288 13.0483 14.7085 13.0483ZM14.8009 12.7074C14.9183 12.7074 15.0187 12.6842 15.102 12.6378C15.1863 12.5914 15.2502 12.5308 15.2938 12.456C15.3383 12.3802 15.3605 12.2992 15.3605 12.2131V11.9318C15.3454 11.947 15.316 11.9612 15.2725 11.9744C15.2298 11.9867 15.1811 11.9976 15.1262 12.0071C15.0712 12.0156 15.0177 12.0237 14.9656 12.0312C14.9136 12.0379 14.87 12.0436 14.835 12.0483C14.7526 12.0587 14.6773 12.0762 14.6091 12.1009C14.5419 12.1255 14.4879 12.161 14.4472 12.2074C14.4074 12.2528 14.3875 12.3134 14.3875 12.3892C14.3875 12.4943 14.4263 12.5739 14.504 12.6278C14.5816 12.6809 14.6806 12.7074 14.8009 12.7074ZM16.5413 13.8182C16.4778 13.8182 16.4201 13.813 16.368 13.8026C16.3159 13.7931 16.2771 13.7827 16.2515 13.7713L16.3538 13.4233C16.4314 13.4441 16.5006 13.4531 16.5612 13.4503C16.6218 13.4474 16.6753 13.4247 16.7217 13.3821C16.769 13.3395 16.8107 13.2699 16.8467 13.1733L16.8992 13.0284L16.1009 10.8182H16.5555L17.108 12.5114H17.1308L17.6833 10.8182H18.1393L17.2401 13.2912C17.1985 13.4048 17.1454 13.5009 17.0811 13.5795C17.0167 13.6591 16.94 13.7188 16.8509 13.7585C16.7619 13.7983 16.6587 13.8182 16.5413 13.8182Z" fill="currentColor"/>
</svg>
