<svg width="24" height="24" viewBox="0 0 24 24" fill="none" xmlns="http://www.w3.org/2000/svg">
<path d="M15.222 9.86099L11.333 13.75L9 11.417" stroke="currentColor" stroke-width="1.5" stroke-linecap="round" stroke-linejoin="round"/>
<path d="M13.0901 5.5L14.5901 4L13.0901 2.5" stroke="currentColor" stroke-width="1.5" stroke-linecap="round" stroke-linejoin="round"/>
<path d="M10.9099 18.5L9.40991 20L10.9099 21.5" stroke="currentColor" stroke-width="1.5" stroke-linecap="round" stroke-linejoin="round"/>
<path d="M17.674 6.371C19.109 7.817 20 9.802 20 12C20 16.418 16.418 20 12 20C11.214 20 10.457 19.882 9.73901 19.671" stroke="currentColor" stroke-width="1.5" stroke-linecap="round" stroke-linejoin="round"/>
<path d="M6.254 17.562C4.86 16.122 4 14.162 4 12C4 7.582 7.582 4 12 4C12.786 4 13.543 4.118 14.261 4.329" stroke="currentColor" stroke-width="1.5" stroke-linecap="round" stroke-linejoin="round"/>
</svg>
