<svg width="22" height="16" viewBox="0 0 22 16" fill="none" xmlns="http://www.w3.org/2000/svg">
<path d="M1 15C1 12.8 2.8 11 5 11H9C11.2 11 13 12.8 13 15" stroke="currentColor" stroke-width="1.5" stroke-linecap="round" stroke-linejoin="round"/>
<path d="M9.49999 2C10.9 3.4 10.9 5.6 9.49999 6.9C8.09999 8.2 5.89999 8.3 4.59999 6.9C3.29999 5.5 3.19999 3.4 4.49999 2C5.79999 0.599999 8.09999 0.699999 9.49999 2" stroke="currentColor" stroke-width="1.5" stroke-linecap="round" stroke-linejoin="round"/>
<path d="M15 10H18C19.7 10 21 11.3 21 13" stroke="currentColor" stroke-width="1.5" stroke-linecap="round" stroke-linejoin="round"/>
<path d="M18.3 2.69999C19.3 3.69999 19.3 5.29999 18.3 6.19999C17.3 7.09999 15.7 7.19999 14.8 6.19999C13.9 5.19999 13.8 3.59999 14.8 2.69999C15.7 1.79999 17.3 1.79999 18.3 2.69999" stroke="currentColor" stroke-width="1.5" stroke-linecap="round" stroke-linejoin="round"/>
</svg>
